<?xml version="1.0" encoding="UTF-8"?>
<!DOCTYPE svg
PUBLIC "-//W3C//DTD SVG 1.1//EN"
       "http://www.w3.org/Graphics/SVG/1.1/DTD/svg11.dtd">
<svg viewBox="15 -15 1553 765" width="1538px" height="780px" xmlns="http://www.w3.org/2000/svg" version="1.1">
   <line x1="340" y1="50" x2="330" y2="50" style="stroke:#cb0;stroke-width:2;"/>
   <line x1="196" y1="30" x2="186" y2="30" style="stroke:#cb0;stroke-width:2;"/>
   <line x1="330" y1="50" x2="196" y2="30" style="stroke:#cb0;stroke-width:2;"/>
   <line x1="332.5" y1="50" x2="336.03553390593" y2="53.535533905933" style="stroke:#cb0;stroke-width:4;"/>
   <line x1="332.5" y1="50" x2="336.03553390593" y2="46.464466094067" style="stroke:#cb0;stroke-width:4;"/>
   <line x1="191" y1="30" x2="194.53553390593" y2="33.535533905933" style="stroke:#cb0;stroke-width:4;"/>
   <line x1="191" y1="30" x2="194.53553390593" y2="26.464466094067" style="stroke:#cb0;stroke-width:4;"/>
   <line x1="504" y1="70" x2="514" y2="70" style="stroke:#b0b;stroke-width:2;"/>
   <line x1="620" y1="30" x2="630" y2="30" style="stroke:#b0b;stroke-width:2;"/>
   <line x1="514" y1="70" x2="620" y2="30" style="stroke:#b0b;stroke-width:2;"/>
   <line x1="511.5" y1="70" x2="507.96446609407" y2="73.535533905933" style="stroke:#b0b;stroke-width:4;"/>
   <line x1="511.5" y1="70" x2="507.96446609407" y2="66.464466094067" style="stroke:#b0b;stroke-width:4;"/>
   <line x1="625" y1="30" x2="621.46446609407" y2="33.535533905933" style="stroke:#b0b;stroke-width:4;"/>
   <line x1="625" y1="30" x2="621.46446609407" y2="26.464466094067" style="stroke:#b0b;stroke-width:4;"/>
   <line x1="630" y1="590" x2="620" y2="590" style="stroke:#b0b;stroke-width:2;"/>
   <line x1="620" y1="330" x2="630" y2="330" style="stroke:#b0b;stroke-width:2;"/>
   <line x1="620" y1="590" x2="620" y2="330" style="stroke:#b0b;stroke-width:2;"/>
   <line x1="622.5" y1="590" x2="626.03553390593" y2="593.53553390593" style="stroke:#b0b;stroke-width:4;"/>
   <line x1="622.5" y1="590" x2="626.03553390593" y2="586.46446609407" style="stroke:#b0b;stroke-width:4;"/>
   <line x1="625" y1="330" x2="621.46446609407" y2="333.53553390593" style="stroke:#b0b;stroke-width:4;"/>
   <line x1="625" y1="330" x2="621.46446609407" y2="326.46446609407" style="stroke:#b0b;stroke-width:4;"/>
   <line x1="1041" y1="390" x2="1051" y2="390" style="stroke:#b0b;stroke-width:2;"/>
   <line x1="1190" y1="370" x2="1200" y2="370" style="stroke:#b0b;stroke-width:2;"/>
   <line x1="1051" y1="390" x2="1190" y2="370" style="stroke:#b0b;stroke-width:2;"/>
   <line x1="1048.5" y1="390" x2="1044.9644660941" y2="393.53553390593" style="stroke:#b0b;stroke-width:4;"/>
   <line x1="1048.5" y1="390" x2="1044.9644660941" y2="386.46446609407" style="stroke:#b0b;stroke-width:4;"/>
   <line x1="1195" y1="370" x2="1191.4644660941" y2="373.53553390593" style="stroke:#b0b;stroke-width:4;"/>
   <line x1="1195" y1="370" x2="1191.4644660941" y2="366.46446609407" style="stroke:#b0b;stroke-width:4;"/>
   <line x1="870" y1="370" x2="860" y2="370" style="stroke:#0bf;stroke-width:2;"/>
   <line x1="728" y1="330" x2="718" y2="330" style="stroke:#0bf;stroke-width:2;"/>
   <line x1="860" y1="370" x2="728" y2="330" style="stroke:#0bf;stroke-width:2;"/>
   <line x1="862.5" y1="370" x2="866.03553390593" y2="373.53553390593" style="stroke:#0bf;stroke-width:4;"/>
   <line x1="862.5" y1="370" x2="866.03553390593" y2="366.46446609407" style="stroke:#0bf;stroke-width:4;"/>
   <line x1="723" y1="330" x2="726.53553390593" y2="333.53553390593" style="stroke:#0bf;stroke-width:4;"/>
   <line x1="723" y1="330" x2="726.53553390593" y2="326.46446609407" style="stroke:#0bf;stroke-width:4;"/>
   <line x1="472" y1="380" x2="482" y2="380" style="stroke:#b0b;stroke-width:2;"/>
   <line x1="620" y1="330" x2="630" y2="330" style="stroke:#b0b;stroke-width:2;"/>
   <line x1="482" y1="380" x2="620" y2="330" style="stroke:#b0b;stroke-width:2;"/>
   <line x1="479.5" y1="380" x2="475.96446609407" y2="383.53553390593" style="stroke:#b0b;stroke-width:4;"/>
   <line x1="479.5" y1="380" x2="475.96446609407" y2="376.46446609407" style="stroke:#b0b;stroke-width:4;"/>
   <line x1="625" y1="330" x2="621.46446609407" y2="333.53553390593" style="stroke:#b0b;stroke-width:4;"/>
   <line x1="625" y1="330" x2="621.46446609407" y2="326.46446609407" style="stroke:#b0b;stroke-width:4;"/>
   <line x1="330" y1="360" x2="320" y2="360" style="stroke:#bbb;stroke-width:2;"/>
   <line x1="156" y1="360" x2="146" y2="360" style="stroke:#bbb;stroke-width:2;"/>
   <line x1="320" y1="360" x2="156" y2="360" style="stroke:#bbb;stroke-width:2;"/>
   <line x1="322.5" y1="360" x2="326.03553390593" y2="363.53553390593" style="stroke:#bbb;stroke-width:4;"/>
   <line x1="322.5" y1="360" x2="326.03553390593" y2="356.46446609407" style="stroke:#bbb;stroke-width:4;"/>
   <line x1="151" y1="360" x2="154.53553390593" y2="363.53553390593" style="stroke:#bbb;stroke-width:4;"/>
   <line x1="151" y1="360" x2="154.53553390593" y2="356.46446609407" style="stroke:#bbb;stroke-width:4;"/>
   <line x1="630" y1="50" x2="620" y2="50" style="stroke:#b0b;stroke-width:2;"/>
   <line x1="620" y1="330" x2="630" y2="330" style="stroke:#b0b;stroke-width:2;"/>
   <line x1="620" y1="50" x2="620" y2="330" style="stroke:#b0b;stroke-width:2;"/>
   <line x1="622.5" y1="50" x2="626.03553390593" y2="53.535533905933" style="stroke:#b0b;stroke-width:4;"/>
   <line x1="622.5" y1="50" x2="626.03553390593" y2="46.464466094067" style="stroke:#b0b;stroke-width:4;"/>
   <line x1="625" y1="330" x2="621.46446609407" y2="333.53553390593" style="stroke:#b0b;stroke-width:4;"/>
   <line x1="625" y1="330" x2="621.46446609407" y2="326.46446609407" style="stroke:#b0b;stroke-width:4;"/>
   <rect width="164" height="20" x="340" y="0" style="fill:#007;stroke:black;"/>
   <text width="164" height="20" x="345" y="14" style="fill:#fff;" font-family="Arial" font-size="16px"> documents</text>
   <rect width="164" height="20" x="340" y="20" style="fill:#aea;stroke:black;"/>
   <text width="164" height="20" x="345" y="34" style="fill:black;" font-family="Arial" font-size="16px">id</text>
   <rect width="164" height="20" x="340" y="40" style="fill:white;stroke:black;"/>
   <text width="164" height="20" x="345" y="54" style="fill:black;" font-family="Arial" font-size="16px">document_category_id</text>
   <rect width="164" height="20" x="340" y="60" style="fill:white;stroke:black;"/>
   <text width="164" height="20" x="345" y="74" style="fill:black;" font-family="Arial" font-size="16px">user_id</text>
   <rect width="164" height="20" x="340" y="80" style="fill:white;stroke:black;"/>
   <text width="164" height="20" x="345" y="94" style="fill:black;" font-family="Arial" font-size="16px">title</text>
   <rect width="164" height="20" x="340" y="100" style="fill:white;stroke:black;"/>
   <text width="164" height="20" x="345" y="114" style="fill:black;" font-family="Arial" font-size="16px">name</text>
   <rect width="164" height="20" x="340" y="120" style="fill:white;stroke:black;"/>
   <text width="164" height="20" x="345" y="134" style="fill:black;" font-family="Arial" font-size="16px">extension</text>
   <rect width="164" height="20" x="340" y="140" style="fill:white;stroke:black;"/>
   <text width="164" height="20" x="345" y="154" style="fill:black;" font-family="Arial" font-size="16px">created_at</text>
   <rect width="164" height="20" x="340" y="160" style="fill:white;stroke:black;"/>
   <text width="164" height="20" x="345" y="174" style="fill:black;" font-family="Arial" font-size="16px">updated_at</text>
   <rect width="156" height="20" x="30" y="0" style="fill:#007;stroke:black;"/>
   <text width="156" height="20" x="35" y="14" style="fill:#fff;" font-family="Arial" font-size="16px"> document_categories</text>
   <rect width="156" height="20" x="30" y="20" style="fill:#aea;stroke:black;"/>
   <text width="156" height="20" x="35" y="34" style="fill:black;" font-family="Arial" font-size="16px">id</text>
   <rect width="156" height="20" x="30" y="40" style="fill:white;stroke:black;"/>
   <text width="156" height="20" x="35" y="54" style="fill:black;" font-family="Arial" font-size="16px">name</text>
   <rect width="156" height="20" x="30" y="60" style="fill:white;stroke:black;"/>
   <text width="156" height="20" x="35" y="74" style="fill:black;" font-family="Arial" font-size="16px">is_private</text>
   <rect width="156" height="20" x="30" y="80" style="fill:white;stroke:black;"/>
   <text width="156" height="20" x="35" y="94" style="fill:black;" font-family="Arial" font-size="16px">created_at</text>
   <rect width="156" height="20" x="30" y="100" style="fill:white;stroke:black;"/>
   <text width="156" height="20" x="35" y="114" style="fill:black;" font-family="Arial" font-size="16px">updated_at</text>
   <rect width="87" height="20" x="1120" y="0" style="fill:#007;stroke:black;"/>
   <text width="87" height="20" x="1125" y="14" style="fill:#fff;" font-family="Arial" font-size="16px"> failed_jobs</text>
   <rect width="87" height="20" x="1120" y="20" style="fill:#aea;stroke:black;"/>
   <text width="87" height="20" x="1125" y="34" style="fill:black;" font-family="Arial" font-size="16px">id</text>
   <rect width="87" height="20" x="1120" y="40" style="fill:white;stroke:black;"/>
   <text width="87" height="20" x="1125" y="54" style="fill:black;" font-family="Arial" font-size="16px">uuid</text>
   <rect width="87" height="20" x="1120" y="60" style="fill:white;stroke:black;"/>
   <text width="87" height="20" x="1125" y="74" style="fill:black;" font-family="Arial" font-size="16px">connection</text>
   <rect width="87" height="20" x="1120" y="80" style="fill:white;stroke:black;"/>
   <text width="87" height="20" x="1125" y="94" style="fill:black;" font-family="Arial" font-size="16px">queue</text>
   <rect width="87" height="20" x="1120" y="100" style="fill:white;stroke:black;"/>
   <text width="87" height="20" x="1125" y="114" style="fill:black;" font-family="Arial" font-size="16px">payload</text>
   <rect width="87" height="20" x="1120" y="120" style="fill:white;stroke:black;"/>
   <text width="87" height="20" x="1125" y="134" style="fill:black;" font-family="Arial" font-size="16px">exception</text>
   <rect width="87" height="20" x="1120" y="140" style="fill:white;stroke:black;"/>
   <text width="87" height="20" x="1125" y="154" style="fill:black;" font-family="Arial" font-size="16px">failed_at</text>
   <rect width="83" height="20" x="50" y="670" style="fill:#007;stroke:black;"/>
   <text width="83" height="20" x="55" y="684" style="fill:#fff;" font-family="Arial" font-size="16px"> migrations</text>
   <rect width="83" height="20" x="50" y="690" style="fill:#aea;stroke:black;"/>
   <text width="83" height="20" x="55" y="704" style="fill:black;" font-family="Arial" font-size="16px">id</text>
   <rect width="83" height="20" x="50" y="710" style="fill:white;stroke:black;"/>
   <text width="83" height="20" x="55" y="724" style="fill:black;" font-family="Arial" font-size="16px">migration</text>
   <rect width="83" height="20" x="50" y="730" style="fill:white;stroke:black;"/>
   <text width="83" height="20" x="55" y="744" style="fill:black;" font-family="Arial" font-size="16px">batch</text>
   <rect width="123" height="20" x="40" y="550" style="fill:#007;stroke:black;"/>
   <text width="123" height="20" x="45" y="564" style="fill:#fff;" font-family="Arial" font-size="16px"> password_resets</text>
   <rect width="123" height="20" x="40" y="570" style="fill:white;stroke:black;"/>
   <text width="123" height="20" x="45" y="584" style="fill:black;" font-family="Arial" font-size="16px">email</text>
   <rect width="123" height="20" x="40" y="590" style="fill:white;stroke:black;"/>
   <text width="123" height="20" x="45" y="604" style="fill:black;" font-family="Arial" font-size="16px">token</text>
   <rect width="123" height="20" x="40" y="610" style="fill:white;stroke:black;"/>
   <text width="123" height="20" x="45" y="624" style="fill:black;" font-family="Arial" font-size="16px">created_at</text>
   <rect width="178" height="20" x="1360" y="0" style="fill:#007;stroke:black;"/>
   <text width="178" height="20" x="1365" y="14" style="fill:#fff;" font-family="Arial" font-size="16px"> personal_access_tokens</text>
   <rect width="178" height="20" x="1360" y="20" style="fill:#aea;stroke:black;"/>
   <text width="178" height="20" x="1365" y="34" style="fill:black;" font-family="Arial" font-size="16px">id</text>
   <rect width="178" height="20" x="1360" y="40" style="fill:white;stroke:black;"/>
   <text width="178" height="20" x="1365" y="54" style="fill:black;" font-family="Arial" font-size="16px">tokenable_type</text>
   <rect width="178" height="20" x="1360" y="60" style="fill:white;stroke:black;"/>
   <text width="178" height="20" x="1365" y="74" style="fill:black;" font-family="Arial" font-size="16px">tokenable_id</text>
   <rect width="178" height="20" x="1360" y="80" style="fill:white;stroke:black;"/>
   <text width="178" height="20" x="1365" y="94" style="fill:black;" font-family="Arial" font-size="16px">name</text>
   <rect width="178" height="20" x="1360" y="100" style="fill:white;stroke:black;"/>
   <text width="178" height="20" x="1365" y="114" style="fill:black;" font-family="Arial" font-size="16px">token</text>
   <rect width="178" height="20" x="1360" y="120" style="fill:white;stroke:black;"/>
   <text width="178" height="20" x="1365" y="134" style="fill:black;" font-family="Arial" font-size="16px">abilities</text>
   <rect width="178" height="20" x="1360" y="140" style="fill:white;stroke:black;"/>
   <text width="178" height="20" x="1365" y="154" style="fill:black;" font-family="Arial" font-size="16px">last_used_at</text>
   <rect width="178" height="20" x="1360" y="160" style="fill:white;stroke:black;"/>
   <text width="178" height="20" x="1365" y="174" style="fill:black;" font-family="Arial" font-size="16px">created_at</text>
   <rect width="178" height="20" x="1360" y="180" style="fill:white;stroke:black;"/>
   <text width="178" height="20" x="1365" y="194" style="fill:black;" font-family="Arial" font-size="16px">updated_at</text>
   <rect width="86" height="20" x="630" y="540" style="fill:#007;stroke:black;"/>
   <text width="86" height="20" x="635" y="554" style="fill:#fff;" font-family="Arial" font-size="16px"> pictures</text>
   <rect width="86" height="20" x="630" y="560" style="fill:#aea;stroke:black;"/>
   <text width="86" height="20" x="635" y="574" style="fill:black;" font-family="Arial" font-size="16px">id</text>
   <rect width="86" height="20" x="630" y="580" style="fill:white;stroke:black;"/>
   <text width="86" height="20" x="635" y="594" style="fill:black;" font-family="Arial" font-size="16px">tattooist_id</text>
   <rect width="86" height="20" x="630" y="600" style="fill:white;stroke:black;"/>
   <text width="86" height="20" x="635" y="614" style="fill:black;" font-family="Arial" font-size="16px">picture_id</text>
   <rect width="86" height="20" x="630" y="620" style="fill:white;stroke:black;"/>
   <text width="86" height="20" x="635" y="634" style="fill:black;" font-family="Arial" font-size="16px">name</text>
   <rect width="86" height="20" x="630" y="640" style="fill:white;stroke:black;"/>
   <text width="86" height="20" x="635" y="654" style="fill:black;" font-family="Arial" font-size="16px">is_main</text>
   <rect width="86" height="20" x="630" y="660" style="fill:white;stroke:black;"/>
   <text width="86" height="20" x="635" y="674" style="fill:black;" font-family="Arial" font-size="16px">is_visible</text>
   <rect width="86" height="20" x="630" y="680" style="fill:white;stroke:black;"/>
   <text width="86" height="20" x="635" y="694" style="fill:black;" font-family="Arial" font-size="16px">created_at</text>
   <rect width="86" height="20" x="630" y="700" style="fill:white;stroke:black;"/>
   <text width="86" height="20" x="635" y="714" style="fill:black;" font-family="Arial" font-size="16px">updated_at</text>
   <rect width="121" height="20" x="1200" y="340" style="fill:#007;stroke:black;"/>
   <text width="121" height="20" x="1205" y="354" style="fill:#fff;" font-family="Arial" font-size="16px"> social_networks</text>
   <rect width="121" height="20" x="1200" y="360" style="fill:#aea;stroke:black;"/>
   <text width="121" height="20" x="1205" y="374" style="fill:black;" font-family="Arial" font-size="16px">id</text>
   <rect width="121" height="20" x="1200" y="380" style="fill:white;stroke:black;"/>
   <text width="121" height="20" x="1205" y="394" style="fill:black;" font-family="Arial" font-size="16px">name</text>
   <rect width="121" height="20" x="1200" y="400" style="fill:white;stroke:black;"/>
   <text width="121" height="20" x="1205" y="414" style="fill:black;" font-family="Arial" font-size="16px">created_at</text>
   <rect width="121" height="20" x="1200" y="420" style="fill:white;stroke:black;"/>
   <text width="121" height="20" x="1205" y="434" style="fill:black;" font-family="Arial" font-size="16px">updated_at</text>
   <rect width="171" height="20" x="870" y="320" style="fill:#007;stroke:black;"/>
   <text width="171" height="20" x="875" y="334" style="fill:#fff;" font-family="Arial" font-size="16px"> social_network_tattooist</text>
   <rect width="171" height="20" x="870" y="340" style="fill:#aea;stroke:black;"/>
   <text width="171" height="20" x="875" y="354" style="fill:black;" font-family="Arial" font-size="16px">id</text>
   <rect width="171" height="20" x="870" y="360" style="fill:white;stroke:black;"/>
   <text width="171" height="20" x="875" y="374" style="fill:black;" font-family="Arial" font-size="16px">tattooist_id</text>
   <rect width="171" height="20" x="870" y="380" style="fill:white;stroke:black;"/>
   <text width="171" height="20" x="875" y="394" style="fill:black;" font-family="Arial" font-size="16px">social_network_id</text>
   <rect width="171" height="20" x="870" y="400" style="fill:white;stroke:black;"/>
   <text width="171" height="20" x="875" y="414" style="fill:black;" font-family="Arial" font-size="16px">url</text>
   <rect width="171" height="20" x="870" y="420" style="fill:white;stroke:black;"/>
   <text width="171" height="20" x="875" y="434" style="fill:black;" font-family="Arial" font-size="16px">created_at</text>
   <rect width="171" height="20" x="870" y="440" style="fill:white;stroke:black;"/>
   <text width="171" height="20" x="875" y="454" style="fill:black;" font-family="Arial" font-size="16px">updated_at</text>
   <rect width="93" height="20" x="870" y="0" style="fill:#007;stroke:black;"/>
   <text width="93" height="20" x="875" y="14" style="fill:#fff;" font-family="Arial" font-size="16px"> subscribers</text>
   <rect width="93" height="20" x="870" y="20" style="fill:#aea;stroke:black;"/>
   <text width="93" height="20" x="875" y="34" style="fill:black;" font-family="Arial" font-size="16px">id</text>
   <rect width="93" height="20" x="870" y="40" style="fill:white;stroke:black;"/>
   <text width="93" height="20" x="875" y="54" style="fill:black;" font-family="Arial" font-size="16px">email</text>
   <rect width="93" height="20" x="870" y="60" style="fill:white;stroke:black;"/>
   <text width="93" height="20" x="875" y="74" style="fill:black;" font-family="Arial" font-size="16px">created_at</text>
   <rect width="93" height="20" x="870" y="80" style="fill:white;stroke:black;"/>
   <text width="93" height="20" x="875" y="94" style="fill:black;" font-family="Arial" font-size="16px">updated_at</text>
   <rect width="88" height="20" x="630" y="300" style="fill:#007;stroke:black;"/>
   <text width="88" height="20" x="635" y="314" style="fill:#fff;" font-family="Arial" font-size="16px"> tattooists</text>
   <rect width="88" height="20" x="630" y="320" style="fill:#aea;stroke:black;"/>
   <text width="88" height="20" x="635" y="334" style="fill:black;" font-family="Arial" font-size="16px">id</text>
   <rect width="88" height="20" x="630" y="340" style="fill:white;stroke:black;"/>
   <text width="88" height="20" x="635" y="354" style="fill:black;" font-family="Arial" font-size="16px">is_resident</text>
   <rect width="88" height="20" x="630" y="360" style="fill:white;stroke:black;"/>
   <text width="88" height="20" x="635" y="374" style="fill:black;" font-family="Arial" font-size="16px">is_active</text>
   <rect width="88" height="20" x="630" y="380" style="fill:white;stroke:black;"/>
   <text width="88" height="20" x="635" y="394" style="fill:black;" font-family="Arial" font-size="16px">name</text>
   <rect width="88" height="20" x="630" y="400" style="fill:white;stroke:black;"/>
   <text width="88" height="20" x="635" y="414" style="fill:black;" font-family="Arial" font-size="16px">email</text>
   <rect width="88" height="20" x="630" y="420" style="fill:white;stroke:black;"/>
   <text width="88" height="20" x="635" y="434" style="fill:black;" font-family="Arial" font-size="16px">description</text>
   <rect width="88" height="20" x="630" y="440" style="fill:white;stroke:black;"/>
   <text width="88" height="20" x="635" y="454" style="fill:black;" font-family="Arial" font-size="16px">created_at</text>
   <rect width="88" height="20" x="630" y="460" style="fill:white;stroke:black;"/>
   <text width="88" height="20" x="635" y="474" style="fill:black;" font-family="Arial" font-size="16px">updated_at</text>
   <rect width="142" height="20" x="330" y="310" style="fill:#007;stroke:black;"/>
   <text width="142" height="20" x="335" y="324" style="fill:#fff;" font-family="Arial" font-size="16px"> tattooist_workplace</text>
   <rect width="142" height="20" x="330" y="330" style="fill:#aea;stroke:black;"/>
   <text width="142" height="20" x="335" y="344" style="fill:black;" font-family="Arial" font-size="16px">id</text>
   <rect width="142" height="20" x="330" y="350" style="fill:white;stroke:black;"/>
   <text width="142" height="20" x="335" y="364" style="fill:black;" font-family="Arial" font-size="16px">workplace_id</text>
   <rect width="142" height="20" x="330" y="370" style="fill:white;stroke:black;"/>
   <text width="142" height="20" x="335" y="384" style="fill:black;" font-family="Arial" font-size="16px">tattooist_id</text>
   <rect width="142" height="20" x="330" y="390" style="fill:white;stroke:black;"/>
   <text width="142" height="20" x="335" y="404" style="fill:black;" font-family="Arial" font-size="16px">start_date</text>
   <rect width="142" height="20" x="330" y="410" style="fill:white;stroke:black;"/>
   <text width="142" height="20" x="335" y="424" style="fill:black;" font-family="Arial" font-size="16px">end_date</text>
   <rect width="142" height="20" x="330" y="430" style="fill:white;stroke:black;"/>
   <text width="142" height="20" x="335" y="444" style="fill:black;" font-family="Arial" font-size="16px">created_at</text>
   <rect width="142" height="20" x="330" y="450" style="fill:white;stroke:black;"/>
   <text width="142" height="20" x="335" y="464" style="fill:black;" font-family="Arial" font-size="16px">updated_at</text>
   <rect width="127" height="20" x="630" y="0" style="fill:#007;stroke:black;"/>
   <text width="127" height="20" x="635" y="14" style="fill:#fff;" font-family="Arial" font-size="16px"> users</text>
   <rect width="127" height="20" x="630" y="20" style="fill:#aea;stroke:black;"/>
   <text width="127" height="20" x="635" y="34" style="fill:black;" font-family="Arial" font-size="16px">id</text>
   <rect width="127" height="20" x="630" y="40" style="fill:white;stroke:black;"/>
   <text width="127" height="20" x="635" y="54" style="fill:black;" font-family="Arial" font-size="16px">tattooist_id</text>
   <rect width="127" height="20" x="630" y="60" style="fill:white;stroke:black;"/>
   <text width="127" height="20" x="635" y="74" style="fill:black;" font-family="Arial" font-size="16px">is_admin</text>
   <rect width="127" height="20" x="630" y="80" style="fill:white;stroke:black;"/>
   <text width="127" height="20" x="635" y="94" style="fill:black;" font-family="Arial" font-size="16px">first_name</text>
   <rect width="127" height="20" x="630" y="100" style="fill:white;stroke:black;"/>
   <text width="127" height="20" x="635" y="114" style="fill:black;" font-family="Arial" font-size="16px">last_name</text>
   <rect width="127" height="20" x="630" y="120" style="fill:white;stroke:black;"/>
   <text width="127" height="20" x="635" y="134" style="fill:black;" font-family="Arial" font-size="16px">email</text>
   <rect width="127" height="20" x="630" y="140" style="fill:white;stroke:black;"/>
   <text width="127" height="20" x="635" y="154" style="fill:black;" font-family="Arial" font-size="16px">email_verified_at</text>
   <rect width="127" height="20" x="630" y="160" style="fill:white;stroke:black;"/>
   <text width="127" height="20" x="635" y="174" style="fill:black;" font-family="Arial" font-size="16px">password</text>
   <rect width="127" height="20" x="630" y="180" style="fill:white;stroke:black;"/>
   <text width="127" height="20" x="635" y="194" style="fill:black;" font-family="Arial" font-size="16px">remember_token</text>
   <rect width="127" height="20" x="630" y="200" style="fill:white;stroke:black;"/>
   <text width="127" height="20" x="635" y="214" style="fill:black;" font-family="Arial" font-size="16px">created_at</text>
   <rect width="127" height="20" x="630" y="220" style="fill:white;stroke:black;"/>
   <text width="127" height="20" x="635" y="234" style="fill:black;" font-family="Arial" font-size="16px">updated_at</text>
   <rect width="86" height="20" x="60" y="330" style="fill:#007;stroke:black;"/>
   <text width="86" height="20" x="65" y="344" style="fill:#fff;" font-family="Arial" font-size="16px"> workplaces</text>
   <rect width="86" height="20" x="60" y="350" style="fill:#aea;stroke:black;"/>
   <text width="86" height="20" x="65" y="364" style="fill:black;" font-family="Arial" font-size="16px">id</text>
   <rect width="86" height="20" x="60" y="370" style="fill:white;stroke:black;"/>
   <text width="86" height="20" x="65" y="384" style="fill:black;" font-family="Arial" font-size="16px">number</text>
   <rect width="86" height="20" x="60" y="390" style="fill:white;stroke:black;"/>
   <text width="86" height="20" x="65" y="404" style="fill:black;" font-family="Arial" font-size="16px">is_pmr</text>
   <rect width="86" height="20" x="60" y="410" style="fill:white;stroke:black;"/>
   <text width="86" height="20" x="65" y="424" style="fill:black;" font-family="Arial" font-size="16px">created_at</text>
   <rect width="86" height="20" x="60" y="430" style="fill:white;stroke:black;"/>
   <text width="86" height="20" x="65" y="444" style="fill:black;" font-family="Arial" font-size="16px">updated_at</text>
</svg>
